<svg width="279" height="273" viewBox="0 0 279 273" fill="none" xmlns="http://www.w3.org/2000/svg">
<path d="M104.679 51.6325C77.4275 60.4769 32.4549 89.5296 35.0783 145.276C35.8387 161.305 40.3479 176.932 48.2429 190.897C56.1379 204.863 67.198 216.777 80.5327 225.68C104.25 241.761 140.014 253.286 185.843 232.756C198.536 227.3 209.939 219.231 219.31 209.072C228.682 198.913 235.813 186.893 240.239 173.793C248.591 147.796 248.002 112.257 212.077 73.8776C192.085 57.047 167.03 47.4206 140.924 46.5402C128.631 45.9698 116.34 47.6966 104.679 51.6325Z" stroke="#1D1D1B" stroke-width="12.0577" stroke-miterlimit="10"/>
<path d="M32.4014 72.3232L110.033 105.878C110.033 105.878 142.905 91.245 147.67 0.120483C147.67 0.120483 146.76 124.639 177.117 101.965C207.473 79.2916 261.761 29.6019 261.761 29.6019C261.761 29.6019 214.219 83.2046 211.114 136.807L278.626 150.851C278.626 150.851 189.859 155.622 195.695 194.269C200.502 221.247 208.799 247.483 220.376 272.315L186.807 214.049C186.807 214.049 168.55 177.009 142.905 214.049C117.26 251.088 114.101 269.527 114.101 269.527L117.849 210.564C117.849 210.564 125.13 187.14 92.686 199.844C76.9992 205.74 26.1909 250.606 26.1909 250.606L83.5844 182.369C84.3099 180.455 84.6001 178.403 84.4339 176.363C84.2678 174.322 83.6494 172.344 82.6238 170.573C81.5983 168.802 80.1913 167.282 78.5052 166.123C76.8191 164.965 74.8963 164.197 72.8767 163.877L0.171112 150.529L83.5309 148.653C84.6236 148.618 85.6888 148.301 86.6239 147.734C87.5591 147.167 88.3328 146.369 88.8705 145.416C89.4083 144.463 89.6921 143.387 89.6946 142.293C89.6971 141.198 89.4182 140.121 88.8848 139.166C83.049 128.767 73.7333 103.306 32.4014 72.3232Z" fill="#1D1D1B"/>
<path d="M143.28 186.122C164.54 186.122 181.774 168.867 181.774 147.581C181.774 126.296 164.54 109.041 143.28 109.041C122.02 109.041 104.785 126.296 104.785 147.581C104.785 168.867 122.02 186.122 143.28 186.122Z" fill="white"/>
<path d="M114.048 145.812L127.861 131.983L141.138 145.33" stroke="#1D1D1B" stroke-width="4.01923" stroke-miterlimit="10"/>
<path d="M146.706 145.812L160.519 131.983L173.851 145.33" stroke="#1D1D1B" stroke-width="4.01923" stroke-miterlimit="10"/>
</svg>
