<svg width="349" height="640" viewBox="0 0 349 640" fill="none" xmlns="http://www.w3.org/2000/svg">
<g clip-path="url(#clip0_13_17)">
<path d="M-50.3435 440.51C-50.3435 440.51 186.492 480.734 244.185 604.685C244.185 604.685 276.528 574.095 230.93 511.258C185.332 448.422 186.36 358.439 186.36 358.439C186.36 358.439 195.87 252.101 226.655 219.689C233.68 212.307 240.904 206.215 246.538 198.104C261.814 175.889 286.867 136.261 287.828 114.113C287.874 113.185 287.679 112.26 287.261 111.431C286.843 110.601 286.216 109.893 285.442 109.378C284.575 108.686 283.571 108.184 282.496 107.905C281.421 107.627 280.3 107.578 279.205 107.762C278.11 107.947 277.067 108.36 276.143 108.975C275.219 109.59 274.435 110.393 273.843 111.332C267.216 119.641 246.737 144.438 250.647 122.257C253.566 108.479 257.464 94.9259 262.311 81.7014C268.892 63.267 271.004 43.5369 268.475 24.1292C267.083 13.9324 264.465 4.76185 259.859 1.58362C259.129 1.11605 258.297 0.829937 257.434 0.7492C256.57 0.668463 255.699 0.795448 254.895 1.11954C254.09 1.44363 253.375 1.95542 252.809 2.61211C252.243 3.26881 251.843 4.05133 251.641 4.89428C248.559 17.6403 233.813 72.9282 222.679 79.5826C222.679 79.5826 213.599 -13.5129 188.249 3.96729C185.739 9.30952 187.914 15.6083 188.249 21.5C187.756 48.9711 182.017 75.9569 177.678 103.088C174.767 118.484 172.765 134.038 171.68 149.669C171.557 152.949 171.056 156.204 170.188 159.369C168.631 164.104 160.247 184.431 152.824 203.004C143.634 225.605 126.873 244.317 105.404 255.941C66.2352 276.798 1.0532 306.23 -50.3435 302.555V440.51Z" fill="white"/>
</g>
<ellipse cx="79.9092" cy="373.591" rx="268.909" ry="265.758" fill="url(#paint0_radial_13_17)"/>
<defs>
<radialGradient id="paint0_radial_13_17" cx="0" cy="0" r="1" gradientUnits="userSpaceOnUse" gradientTransform="translate(79.9092 373.591) rotate(90) scale(265.758 268.909)">
<stop offset="0.145833" stop-color="white"/>
<stop offset="0.588542" stop-color="white" stop-opacity="0.33"/>
<stop offset="1" stop-color="white" stop-opacity="0"/>
</radialGradient>
<clipPath id="clip0_13_17">
<rect width="338.237" height="603.995" fill="white" transform="translate(-50.3437 0.689514)"/>
</clipPath>
</defs>
</svg>
