<svg width="349" height="640" viewBox="0 0 349 640" fill="none" xmlns="http://www.w3.org/2000/svg">
<g clip-path="url(#clip0_13_23)">
<path d="M395.475 440.51C395.475 440.51 158.64 480.734 100.947 604.685C100.947 604.685 68.6042 574.095 114.202 511.258C159.799 448.422 158.772 358.439 158.772 358.439C158.772 358.439 149.262 252.101 118.477 219.689C111.451 212.307 104.227 206.215 98.5939 198.104C83.3174 175.889 58.2652 136.261 57.3042 114.113C57.2574 113.185 57.4526 112.26 57.8709 111.431C58.2892 110.601 58.916 109.893 59.6901 109.378C60.5573 108.686 61.561 108.184 62.6357 107.905C63.7104 107.627 64.8319 107.578 65.9267 107.762C67.0215 107.947 68.0651 108.36 68.989 108.975C69.913 109.59 70.6965 110.393 71.2884 111.332C77.9159 119.641 98.3951 144.438 94.4848 122.257C91.5659 108.479 87.6678 94.9259 82.8203 81.7014C76.2403 63.267 74.128 43.5369 76.6567 24.1292C78.0485 13.9324 80.6664 4.76185 85.2725 1.58362C86.0029 1.11605 86.8347 0.829937 87.6984 0.7492C88.562 0.668463 89.4325 0.795448 90.237 1.11954C91.0416 1.44363 91.7567 1.95542 92.3228 2.61211C92.8888 3.26881 93.2893 4.05133 93.4907 4.89428C96.5725 17.6403 111.319 72.9282 122.453 79.5826C122.453 79.5826 131.533 -13.5129 156.883 3.96729C159.392 9.30952 160.531 15.1917 160.197 21.0834C160.69 48.5544 163.115 75.9569 167.454 103.088C170.364 118.484 172.367 134.038 173.452 149.669C173.575 152.949 174.075 156.204 174.943 159.369C176.501 164.104 184.885 184.431 192.308 203.004C201.498 225.605 218.259 244.317 239.728 255.941C278.897 276.798 344.079 306.23 395.475 302.555V440.51Z" fill="white"/>
</g>
<ellipse cx="269.424" cy="373.591" rx="268.909" ry="265.758" fill="url(#paint0_radial_13_23)"/>
<defs>
<radialGradient id="paint0_radial_13_23" cx="0" cy="0" r="1" gradientUnits="userSpaceOnUse" gradientTransform="translate(269.424 373.591) rotate(90) scale(265.758 268.909)">
<stop offset="0.145833" stop-color="white"/>
<stop offset="0.588542" stop-color="white" stop-opacity="0.33"/>
<stop offset="1" stop-color="white" stop-opacity="0"/>
</radialGradient>
<clipPath id="clip0_13_23">
<rect width="338.237" height="603.995" fill="white" transform="matrix(-1 0 0 1 395.475 0.689514)"/>
</clipPath>
</defs>
</svg>
