<svg width="1200" height="502" viewBox="0 0 1140 502" fill="none" xmlns="http://www.w3.org/2000/svg">
<g clip-path="url(#clip0_2_6)">
<path d="M416.679 52.6326C389.427 61.4771 344.455 90.5297 347.078 146.276C347.839 162.306 352.348 177.932 360.243 191.897C368.138 205.863 379.198 217.777 392.533 226.68C416.25 242.761 452.014 254.286 497.843 233.756C510.536 228.3 521.939 220.231 531.31 210.072C540.682 199.913 547.813 187.893 552.239 174.793C560.591 148.796 560.002 113.257 524.077 74.8777C504.085 58.0471 479.03 48.4208 452.924 47.5404C440.631 46.9699 428.34 48.6968 416.679 52.6326Z" stroke="#1D1D1B" stroke-width="12.0577" stroke-miterlimit="10"/>
<path d="M790.861 212.315L748.619 238.259C743.942 241.283 738.753 243.426 733.306 244.584C687.638 253.535 704.931 173.936 704.931 173.936C666.276 234.346 586.289 268.115 563.642 230.701C550.097 208.241 558.288 193.179 566.694 184.442C571.598 179.608 577.527 175.944 584.041 173.721L647.966 151.637C655.404 149.127 662.07 144.741 667.322 138.901C672.573 133.061 676.233 125.964 677.947 118.296C677.922 118.064 677.922 117.831 677.947 117.599C678.861 112.355 678.175 106.957 675.978 102.109C673.782 97.2608 670.177 93.1883 665.634 90.4226C660.166 86.5644 653.913 83.965 647.323 82.8111C635.369 80.6621 623.208 79.8888 611.078 80.5061C585.861 81.8462 576.652 94.6036 576.652 94.6036C572.949 97.8062 570.588 102.29 570.042 107.159C569.496 112.028 570.805 116.924 573.708 120.869C583.88 136.306 611.72 140.916 629.763 128.427C647.805 115.937 624.409 93.3708 625.854 94.6036C639.721 106.235 642.237 112.775 642.237 112.775C643.901 115.905 644.739 119.409 644.674 122.954C644.608 126.5 643.64 129.97 641.862 133.037C639.815 136.976 637.035 140.488 633.671 143.382C611.72 162.733 589.448 152.066 576.866 142.578C569.264 136.912 564.112 128.551 562.464 119.207C560.109 105.646 560.591 85.3304 579.811 72.4122C610.863 51.6143 648.019 59.9227 667.026 68.4992C686.032 77.0756 687.156 110.256 687.156 110.256C687.156 110.256 689.298 117.492 677.305 149.01C667.186 175.544 621.25 187.175 607.009 190.177C601.335 191.347 595.753 192.924 590.305 194.894C581.738 198.003 571.727 202.667 570.87 207.866C569.317 217.032 586.61 219.015 586.61 219.015C586.61 219.015 634.795 223.625 663.76 201.058C692.724 178.492 697.757 168.897 700.487 165.198C703.218 161.5 707.876 153.835 707.876 153.835C716.661 140.249 724.617 126.144 731.7 111.596C742.408 88.9754 771.265 70.8577 771.265 68.0167C771.265 65.1758 766.661 66.9447 766.661 66.9447C766.661 66.9447 688.441 88.3857 682.123 64.9614C675.806 41.537 707.608 33.2822 707.608 33.2822C707.608 33.2822 690.85 44.2708 697.382 52.9544C699.319 55.4673 701.836 57.4723 704.717 58.7971C709.363 60.8005 714.544 61.1966 719.44 59.9227C738.446 55.4201 811.045 39.2857 830.961 35.1583C837.939 33.9044 845.112 34.2824 851.919 36.263C858.727 38.2436 864.985 41.773 870.205 46.5757C870.205 46.5757 886.855 60.3516 878.289 71.9833C869.723 83.6151 849.004 82.7039 849.004 82.7039C855.127 80.8168 860.924 77.9964 866.189 74.3418C868.123 72.9338 869.5 70.8886 870.078 68.5654C870.655 66.2422 870.397 63.7895 869.348 61.638C867.256 58.6067 864.478 56.1137 861.24 54.3624C858.002 52.611 854.396 51.651 850.717 51.5607C845.669 50.9177 840.56 50.9177 835.512 51.5607C821.155 53.3857 807.234 57.7411 794.394 64.4254C767.594 78.9818 747.409 103.297 738.018 132.34C728.006 161.714 714.247 212.744 734.27 222.5C734.377 222.821 759.433 233.327 790.861 212.315Z" fill="#1D1D1B"/>
<path d="M240.965 118.081C234.257 117.319 227.773 115.204 221.905 111.863C212.91 106.021 202.095 94.2818 211.893 76.7001C227.58 48.5051 275.765 53.0078 275.765 53.0078C275.765 53.0078 296.913 54.7766 297.662 74.4488C297.99 79.9776 297.775 85.5254 297.02 91.012C296.056 96.1716 293.878 101.027 290.666 105.175C287.453 109.324 283.3 112.645 278.549 114.865L286.687 112.989C302.213 109.612 309.869 92.9417 309.869 78.8442C309.869 59.8689 296.484 35.4261 263.397 35.9621C244.309 35.6986 225.521 40.7261 209.109 50.4884C203.571 53.8262 198.975 58.5228 195.755 64.1342C192.534 69.7456 190.797 76.0865 190.706 82.5575C190.614 89.0285 192.173 95.4159 195.234 101.116C198.295 106.816 202.757 111.64 208.199 115.133C214.911 119.238 222.104 122.496 229.614 124.835C234.961 126.5 240.418 127.789 245.944 128.695C313.295 140.487 318.114 159.409 318.114 159.409C318.114 159.409 335.996 209.42 257.401 227.967C190.585 243.726 149.788 213.816 135.333 201.165C128.855 195.484 122.323 189.855 115.47 184.656L97.8556 171.041C103.266 188.336 113.659 203.646 127.73 215.049C147.466 231.441 171.77 241.343 197.331 243.404C228.276 246.352 280.904 246.888 316.561 223.947C323.223 219.766 328.981 214.292 333.495 207.847C338.01 201.403 341.19 194.119 342.849 186.425C353.771 130.732 266.61 122.584 240.965 118.081Z" fill="#1D1D1B"/>
<path d="M875.827 52.3109C875.613 50.8428 875.772 49.3446 876.289 47.9542C876.805 46.5637 877.663 45.3257 878.783 44.3541C879.903 43.3825 881.248 42.7085 882.697 42.3941C884.145 42.0798 885.649 42.1352 887.07 42.5552H912.875C930.864 42.5552 926.421 57.2959 923.101 64.6395C920.21 70.9646 917.747 77.5577 915.445 84.0973L878.45 186.639C874.185 198.944 867.366 210.206 858.443 219.685C849.52 229.164 838.695 236.645 826.678 241.635C818.031 245.125 808.803 246.944 799.48 246.996H1006.57C1010.79 247.094 1014.98 246.245 1018.84 244.51C1022.69 242.776 1026.11 240.2 1028.84 236.972C1037.14 226.734 1037.3 212.422 973.213 212.422C973.213 212.422 1001.32 218.318 1009.19 226.198C1009.58 226.579 1009.86 227.049 1010.02 227.568C1010.18 228.086 1010.21 228.636 1010.1 229.167C1009.99 229.699 1009.76 230.196 1009.41 230.613C1009.07 231.03 1008.62 231.355 1008.12 231.558C1004.55 232.542 1000.85 232.958 997.145 232.791H882.572L944.784 57.6712C948.425 47.7547 954.047 41.5904 964.647 41.5904H988.847C988.847 41.5904 984.617 33.818 961.007 33.818H891.406C843.65 33.818 863.352 47.0042 863.352 47.0042" fill="#1D1D1B"/>
<path d="M1010.9 309.015H1033.71C1049.77 309.015 1045.65 321.986 1042.71 328.472C1040.19 333.833 1038.05 339.89 1035.96 345.679L1003.3 436.16C999.516 446.97 993.49 456.856 985.619 465.17C977.749 473.484 968.212 480.038 957.633 484.402C950.022 487.545 941.881 489.2 933.648 489.28H1116.38C1120.06 489.382 1123.72 488.671 1127.09 487.198C1130.47 485.725 1133.48 483.526 1135.92 480.758C1143.25 471.699 1143.41 459.316 1086.82 459.316C1086.82 459.316 1111.61 464.677 1118.57 471.484C1118.92 471.822 1119.17 472.241 1119.32 472.704C1119.46 473.167 1119.48 473.658 1119.39 474.133C1119.29 474.607 1119.08 475.05 1118.77 475.421C1118.46 475.792 1118.06 476.079 1117.61 476.255C1114.48 477.156 1111.22 477.536 1107.97 477.381H1007L1061.87 322.63C1065.09 313.839 1070.06 308.211 1079.38 308.211H1100.8C1100.8 308.211 1097.05 301.403 1076.28 301.403H988.472L980.655 309.068" fill="#1D1D1B"/>
<path d="M317.846 299.58C317.846 299.58 243.213 307.085 235.503 328.901C227.794 350.717 280.369 346.429 312.331 333.779C344.294 321.129 332.462 301.617 332.462 301.617C353.074 308.532 359.231 326.114 360.57 341.926C361.664 362.066 355.489 381.928 343.17 397.888C285.294 476.201 135.6 488.905 135.6 488.905C227.687 470.787 275.925 435.302 296.216 416.166C305.725 407.329 312.915 396.283 317.15 384.005C320.576 374.034 322.504 362.563 315.33 357.203C301.784 345.893 241.339 345.411 210.715 370.979C180.091 396.548 219.602 411.717 219.602 411.717C167.83 413.486 168.045 382.128 168.045 382.128C168.045 382.128 163.815 360.687 203.166 329.651C236.681 302.85 285.669 298.562 301.945 297.49C307.265 297.123 312.604 297.852 317.632 299.634L317.846 299.58Z" fill="#1D1D1B"/>
<path d="M959.24 306.227C959.24 306.227 884.286 313.731 876.897 335.601C869.509 357.471 921.709 353.129 953.725 340.425C985.741 327.721 973.802 308.532 973.802 308.532C994.468 315.393 1000.57 332.974 1001.96 348.841C1003.05 368.963 996.874 388.806 984.564 404.748C926.795 482.901 777.208 495.337 777.208 495.337C869.295 477.219 917.533 441.734 937.824 422.598C947.312 413.742 954.497 402.702 958.758 390.436C962.184 380.466 963.844 368.995 956.938 363.635C943.178 352.539 882.84 352.111 852.162 377.465C821.485 402.819 861.05 418.149 861.05 418.149C809.278 419.918 809.492 388.56 809.492 388.56C809.492 388.56 805.262 367.119 844.613 336.083C878.129 309.282 927.116 304.994 943.392 303.922C948.717 303.547 954.062 304.295 959.079 306.12L959.24 306.227Z" fill="#1D1D1B"/>
<path d="M393.175 473.413C401.389 472.003 408.734 467.451 413.659 460.72C418.584 453.989 420.704 445.605 419.57 437.339C418.552 428.494 417.482 419.167 417.16 415.576C416.518 408.072 420.159 409.626 420.159 409.626C499.289 425.224 528.2 399.174 538.586 381.377C541.304 376.789 543.057 371.693 543.738 366.403C544.419 361.112 544.014 355.738 542.548 350.61C539.024 339.919 532.679 330.38 524.184 323.004C513.563 313.37 500.894 306.277 487.136 302.26C475.273 298.467 463.027 296.004 450.622 294.916C427.333 293.576 381.022 309.872 368.761 331.956C364.465 339.342 362.759 347.955 363.913 356.424C365.067 364.893 369.017 372.733 375.133 378.697C381.022 384.862 390.498 394.081 391.73 395.261C393.525 397.131 394.654 399.543 394.942 402.122C397.649 413.219 398.838 424.634 398.475 436.052C398.475 439.054 398.475 441.412 398.475 443.932C398.336 446.442 397.691 448.897 396.579 451.151C395.468 453.405 393.912 455.411 392.007 457.048C390.102 458.685 387.886 459.92 385.492 460.678C383.098 461.436 380.576 461.702 378.077 461.46C372.714 460.518 367.483 458.934 362.497 456.743C362.497 456.743 373.098 476.308 393.175 473.413Z" fill="#1D1D1B"/>
<path d="M413.145 387.542C413.145 387.542 413.145 386.47 413.145 385.076C412.77 377.893 412.77 358.275 458.171 364.493C444.416 357.012 428.704 353.925 413.145 355.648C408.718 356.126 404.387 357.264 400.296 359.025C396.066 360.633 389.909 359.668 390.552 339.46C391.515 309.175 421.283 305.851 421.283 305.851C421.283 305.851 473.858 293.255 508.39 332.385C512.95 337.396 516.324 343.371 518.261 349.867C520.198 356.363 520.649 363.212 519.58 369.906C516.956 384.54 506.731 401.21 475.036 404.319C416.304 410.162 413.145 387.542 413.145 387.542Z" fill="white"/>
<path d="M827.588 171.631C839.534 171.631 849.218 161.935 849.218 149.975C849.218 138.015 839.534 128.32 827.588 128.32C815.643 128.32 805.959 138.015 805.959 149.975C805.959 161.935 815.643 171.631 827.588 171.631Z" fill="#1D1D1B"/>
<path d="M241.125 206.58C252.391 206.58 261.523 197.436 261.523 186.157C261.523 174.878 252.391 165.734 241.125 165.734C229.859 165.734 220.727 174.878 220.727 186.157C220.727 197.436 229.859 206.58 241.125 206.58Z" fill="#1D1D1B"/>
<path d="M145.773 447.094C154.053 438.788 159.553 428.112 161.513 416.541C164.66 402.304 164.969 387.586 162.423 373.23C161.727 369.638 160.228 358.221 160.496 361.973C161.336 371.753 160.137 381.601 156.976 390.893C153.815 400.185 148.76 408.718 142.132 415.951C97.2666 460.763 63.9119 445.647 44.7451 427.368C37.2975 420.283 31.3429 411.775 27.2327 402.348C23.1224 392.921 20.9397 382.765 20.8133 372.479C20.8133 350.609 30.3967 325.148 75.9582 325.148C81.312 325.148 91.5915 325.148 97.3737 325.631C111.668 326.703 149.734 338.549 187.961 306.709C187.961 306.709 148.182 329.544 119.967 311.104C108.938 303.814 94.0542 303.868 80.0271 306.548C64.7786 309.348 50.351 315.534 37.8057 324.653C25.2605 333.772 14.9168 345.59 7.53569 359.239C3.7548 366.284 1.4931 374.045 0.896895 382.021C0.474492 391.732 2.28185 401.41 6.18004 410.312C10.0782 419.215 15.9634 427.103 23.3832 433.372C48.707 455.456 101.924 491.048 145.773 447.094Z" fill="#1D1D1B"/>
<path d="M880.913 40.3041H874.542V64.6933H880.913V40.3041Z" fill="#1D1D1B"/>
<path d="M875.987 46.5759C879.21 46.5759 881.823 43.96 881.823 40.7332C881.823 37.5064 879.21 34.8905 875.987 34.8905C872.764 34.8905 870.151 37.5064 870.151 40.7332C870.151 43.96 872.764 46.5759 875.987 46.5759Z" fill="#1D1D1B"/>
<path d="M887.07 42.5554H881.02L883.429 40.7329" fill="#1D1D1B"/>
<path d="M672.808 307.406H746.263C746.263 307.406 661.511 355.97 685.336 440.662C687.611 448.613 690.715 456.303 694.598 463.604C698.355 471.017 702.838 478.038 707.983 484.562C718 493 723.925 491.303 734.5 493C745.208 494.447 760.972 485.581 773.5 468.321C773.5 468.321 715.264 501.769 704.556 431.925C700.751 409.953 704.309 387.338 714.675 367.602C723.603 351.275 736.777 337.673 752.801 328.236C768.824 318.799 787.101 313.879 805.691 313.999H825.982C853.34 313.999 825.607 338.013 825.607 338.013C851.413 336.405 852.965 326.327 848.95 317.429C846.869 313.122 843.612 309.492 839.557 306.96C835.503 304.427 830.815 303.095 826.035 303.118L667.668 301.295H516.207C516.207 301.295 528.949 304.511 545.225 309.335C558.717 313.302 564.82 316.197 565.409 329.436C565.456 334.448 564.659 339.431 563.053 344.177C555.022 370.657 536.284 441.412 516.475 456.046C492.596 473.788 393.336 477.487 393.336 477.487H636.241C626.015 470.947 611.773 474.86 588.056 468.321C564.338 461.781 574.832 419.221 574.832 419.221C574.832 419.221 589.073 369.746 597.479 342.14C597.456 341.873 597.456 341.604 597.479 341.336C599.499 335.205 602.743 329.549 607.014 324.712C611.284 319.874 616.492 315.956 622.321 313.195C629.468 309.786 637.265 307.958 645.182 307.835C651.499 307.674 660.868 307.406 672.808 307.406Z" fill="#1D1D1B"/>
<path d="M645.235 396.493H665.472C665.498 396.065 665.498 395.635 665.472 395.207C665.472 389.79 663.323 384.596 659.498 380.766C655.672 376.936 650.484 374.784 645.074 374.784V396.493H645.235Z" fill="#1D1D1B"/>
<path d="M640.684 396.493V374.784C638.004 374.777 635.348 375.301 632.87 376.325C630.392 377.348 628.14 378.852 626.245 380.75C624.349 382.648 622.847 384.902 621.824 387.383C620.802 389.864 620.279 392.523 620.286 395.207C620.286 395.636 620.286 396.065 620.286 396.493H640.577H640.684Z" fill="#1D1D1B"/>
<path d="M637.258 400.943H620.393C620.719 406.115 622.997 410.969 626.765 414.522C630.533 418.076 635.509 420.062 640.685 420.079V400.943H637.258Z" fill="#1D1D1B"/>
<path d="M645.289 400.943V420.079C650.465 420.062 655.441 418.076 659.209 414.522C662.976 410.969 665.254 406.115 665.58 400.943H645.289Z" fill="#1D1D1B"/>
<rect x="231.331" y="174.554" width="2.62921" height="12.272" fill="white"/>
<rect x="247.106" y="174.554" width="2.62921" height="12.272" fill="white"/>
<rect x="231.331" y="194.715" width="17.5281" height="0.876572" fill="white"/>
<rect x="227.825" y="179.813" width="8.76403" height="2.62972" fill="#1D1D1B"/>
<rect x="243.6" y="179.813" width="8.76403" height="2.62972" fill="#1D1D1B"/>
<path d="M813.726 139.784C814.229 140.286 821.43 146.148 824.779 149.33L813.726 153.349" stroke="white" stroke-width="2.00962"/>
<path d="M841.861 139.784C840.354 140.789 834.157 146.148 830.808 149.33L841.861 153.349" stroke="white" stroke-width="2.00962"/>
<path d="M624.822 387.971H636.88" stroke="white" stroke-width="2.00962"/>
<path d="M648.937 408.068H660.995" stroke="white" stroke-width="2.00962"/>
<circle cx="653.459" cy="387.469" r="4.52163" fill="white"/>
<circle cx="632.358" cy="407.565" r="4.52163" fill="white"/>
<circle cx="455" cy="149" r="39" fill="url(#paint0_radial_2_6)"/>
<circle cx="241.488" cy="185.503" r="22.6082" fill="url(#paint1_radial_2_6)"/>
<circle cx="828.296" cy="150.334" r="22.6082" fill="url(#paint2_radial_2_6)"/>
<circle cx="642.407" cy="396.512" r="22.6082" fill="url(#paint3_radial_2_6)"/>
</g>
<defs>
<radialGradient id="paint0_radial_2_6" cx="0" cy="0" r="1" gradientUnits="userSpaceOnUse" gradientTransform="translate(455 149) rotate(90) scale(39)">
<stop offset="0.216761" stop-color="white" stop-opacity="0.5"/>
<stop offset="0.588542" stop-color="white" stop-opacity="0.33"/>
<stop offset="1" stop-color="white" stop-opacity="0"/>
</radialGradient>
<radialGradient id="paint1_radial_2_6" cx="0" cy="0" r="1" gradientUnits="userSpaceOnUse" gradientTransform="translate(241.488 185.503) rotate(90) scale(22.6082)">
<stop offset="0.216761" stop-color="white" stop-opacity="0.5"/>
<stop offset="0.588542" stop-color="white" stop-opacity="0.33"/>
<stop offset="1" stop-color="white" stop-opacity="0"/>
</radialGradient>
<radialGradient id="paint2_radial_2_6" cx="0" cy="0" r="1" gradientUnits="userSpaceOnUse" gradientTransform="translate(828.296 150.334) rotate(90) scale(22.6082)">
<stop offset="0.216761" stop-color="white" stop-opacity="0.5"/>
<stop offset="0.588542" stop-color="white" stop-opacity="0.33"/>
<stop offset="1" stop-color="white" stop-opacity="0"/>
</radialGradient>
<radialGradient id="paint3_radial_2_6" cx="0" cy="0" r="1" gradientUnits="userSpaceOnUse" gradientTransform="translate(642.407 396.512) rotate(90) scale(22.6082)">
<stop offset="0.216761" stop-color="white" stop-opacity="0.5"/>
<stop offset="0.588542" stop-color="white" stop-opacity="0.33"/>
<stop offset="1" stop-color="white" stop-opacity="0"/>
</radialGradient>
<clipPath id="clip0_2_6">
<rect width="1138.45" height="501.399" fill="white" transform="translate(0.836761 0.115479)"/>
</clipPath>
</defs>
</svg>
